FILE "myimage.bin" BINARY
  TRACK 01 MODE2/2352
    INDEX 01 00:00:00
  TRACK 02 AUDIO
    INDEX 00 00:15:35
    INDEX 01 00:17:35
  TRACK 03 AUDIO
    INDEX 00 00:37:18
    INDEX 01 00:39:18
